<svg width="1940" height="5562" viewBox="0 0 1940 5562" fill="none" xmlns="http://www.w3.org/2000/svg">
<rect x="12" width="1928" height="5562" fill="black"/>
<path d="M843.873 4155.08C843.873 4363.23 682.681 4523 483.84 4523C284.999 4523 197.178 4085.05 197.178 3881.85C437.338 1806.75 2843.05 1780.93 1462.2 1006.58C716.77 688.331 843.873 1585.8 843.873 4155.08Z" fill="#07C189" fill-opacity="0.14"/>
<path d="M1920 122.608C945.674 2594.12 2054.93 4522.94 1856.09 4522.94C1657.24 4522.94 1843.45 3927.41 1462.2 3498.55C1462.2 3295.35 -182.159 2756.95 16.682 2756.95C651.469 2911.63 1643.76 -77.3457 1920 122.608Z" fill="#E8F5F1" fill-opacity="0.08"/>
<path d="M563.113 1321.4L748.326 1266.69L703.097 1454.44L563.113 1321.4Z" fill="#07C189" fill-opacity="0.14"/>
<circle cx="895" cy="782" r="404" fill="#D9D9D9" fill-opacity="0.1"/>
<circle cx="672" cy="2099" r="404" fill="#D9D9D9" fill-opacity="0.1"/>
<circle cx="1477.5" cy="3569.5" r="321.5" fill="#07C189" fill-opacity="0.13"/>
<circle cx="1461" cy="4954" r="237" fill="#07C189" fill-opacity="0.11"/>
<circle cx="481.5" cy="4501.5" r="321.5" fill="#E8F5F1" fill-opacity="0.08"/>
<circle cx="444" cy="439" r="265" fill="#07C189" fill-opacity="0.18"/>
<path d="M1395.41 149.005L1562.92 245.125L1395.92 342.128L1395.41 149.005Z" fill="#07C189" fill-opacity="0.14"/>
<path d="M755.374 179.972L944.274 139.805L884.609 323.481L755.374 179.972Z" fill="#D9D9D9" fill-opacity="0.28"/>
<path d="M435.414 787.005L602.919 883.125L435.924 980.128L435.414 787.005Z" fill="#07C189" fill-opacity="0.34"/>
</svg>
